
<svg width="40" height="40" viewBox="0 0 40 40" fill="none" xmlns="http://www.w3.org/2000/svg">
    <circle cx="20" cy="20" r="20" fill="white"/>
    <mask id="mask0_828_2178" style="mask-type:alpha" maskUnits="userSpaceOnUse" x="0" y="0" width="40" height="40">
        <circle cx="20" cy="20" r="20" fill="black"/>
    </mask>
    <g mask="url(#mask0_828_2178)">
    </g>
    <g clip-path="url(#clip0_828_2178)">
        <path fill-rule="evenodd" clip-rule="evenodd" d="M25.294 15.2911C25.294 18.2281 22.9391 20.5831 20 20.5831C17.0619 20.5831 14.706 18.2281 14.706 15.2911C14.706 12.354 17.0619 10 20 10C22.9391 10 25.294 12.354 25.294 15.2911ZM20 30C15.6624 30 12 29.295 12 26.575C12 23.8539 15.6854 23.1739 20 23.1739C24.3386 23.1739 28 23.8789 28 26.599C28 29.32 24.3146 30 20 30Z" fill="black"/>
    </g>
    <defs>
        <clipPath id="clip0_828_2178">
            <rect width="20" height="20" fill="white" transform="translate(10 10)"/>
        </clipPath>
    </defs>
</svg>
